<svg xmlns="http://www.w3.org/2000/svg" viewBox="0 0 64 64">
  <defs><linearGradient id="g" x1="8" y1="4" x2="56" y2="60" gradientUnits="userSpaceOnUse"><stop stop-color="#f0abfc"/><stop offset=".52" stop-color="#a855f7"/><stop offset="1" stop-color="#22d3ee"/></linearGradient></defs>
  <rect x="3" y="3" width="58" height="58" rx="18" fill="#0b0d14"/>
  <rect x="6" y="6" width="52" height="52" rx="15" fill="url(#g)"/>
  <path d="M25 16a9 9 0 0 1 18 0v15a9 9 0 0 1-18 0V16Zm-6 14a3 3 0 0 1 6 0v1a9 9 0 1 0 18 0v-1a3 3 0 0 1 6 0v1a15 15 0 0 1-12 14.7V51h6a3 3 0 1 1 0 6H25a3 3 0 1 1 0-6h6v-5.3A15 15 0 0 1 19 31v-1Z" fill="#090a10"/>
</svg>
